<?xml version="1.0" encoding="UTF-8"?>
<svg width="1024px" height="1024px" viewBox="0 0 1024 1024" version="1.1" xmlns="http://www.w3.org/2000/svg" xmlns:xlink="http://www.w3.org/1999/xlink">
    <!-- Generator: Sketch 44.1 (41455) - http://www.bohemiancoding.com/sketch -->
    <title>Untitled</title>
    <desc>Created with Sketch.</desc>
    <defs></defs>
    <g id="Page-1" stroke="none" stroke-width="1" fill="none" fill-rule="evenodd">
        <g id="icon" transform="translate(65.000000, 234.000000)" fill-rule="nonzero" fill="#333333">
            <path d="M160.616,426.377 C142.362,422.141 128.323,406.614 128.323,386.851 L128.323,169.455 C129.727,149.691 142.364,134.164 160.616,129.928 L361.396,86.168 L382.458,0.056 L149.384,0.056 C66.545,0.056 0.554,66.403 0.554,148.281 L0.554,405.204 C0.554,487.08 67.949,554.84 149.384,554.84 L382.458,554.84 L361.397,468.728 L160.616,426.377 Z M744.708,0.054 L510.226,0.054 L531.288,86.165 L732.073,129.926 C750.326,134.163 764.36,149.69 764.36,169.452 L764.36,386.85 C762.96,406.613 750.325,422.14 732.073,426.376 L531.288,470.138 L510.226,556.248 L744.708,556.248 C826.144,556.248 893.538,489.901 893.538,406.613 L893.538,148.278 C892.128,66.401 826.144,0.054 744.708,0.054 Z M361.396,266.86 L532.69,266.86 L532.69,288.034 L361.396,288.034 L361.396,266.86 Z" id="Shape"></path>
        </g>
    </g>
</svg>